<mxfile host="65bd71144e">
    <diagram id="xXk64WKc0dQuTw1yKZdw" name="PÃ¡gina-1">
        <mxGraphModel dx="1202" dy="461" grid="1" gridSize="10" guides="1" tooltips="1" connect="1" arrows="1" fold="1" page="1" pageScale="1" pageWidth="1169" pageHeight="1654" background="none" math="0" shadow="0">
            <root>
                <mxCell id="0"/>
                <mxCell id="1" parent="0"/>
                <mxCell id="33" value="Kubernetes" style="swimlane;whiteSpace=wrap;html=1;fontSize=48;startSize=60;" parent="1" vertex="1">
                    <mxGeometry x="90" y="70" width="910" height="730" as="geometry"/>
                </mxCell>
                <mxCell id="2" value="To Do List" style="rounded=1;whiteSpace=wrap;html=1;" parent="33" vertex="1">
                    <mxGeometry x="95" y="270" width="120" height="60" as="geometry"/>
                </mxCell>
                <mxCell id="5" value="Data Base" style="shape=cylinder3;whiteSpace=wrap;html=1;boundedLbl=1;backgroundOutline=1;size=15;" parent="33" vertex="1">
                    <mxGeometry x="325" y="550" width="80" height="100" as="geometry"/>
                </mxCell>
                <mxCell id="6" value="" style="shape=flexArrow;endArrow=classic;startArrow=classic;html=1;entryX=0.5;entryY=1;entryDx=0;entryDy=0;exitX=0;exitY=0;exitDx=0;exitDy=32.5;exitPerimeter=0;" parent="33" source="5" target="2" edge="1">
                    <mxGeometry width="100" height="100" relative="1" as="geometry">
                        <mxPoint x="335" y="590" as="sourcePoint"/>
                        <mxPoint x="465" y="450" as="targetPoint"/>
                    </mxGeometry>
                </mxCell>
                <mxCell id="7" value="Api Envio de tareas" style="rounded=1;whiteSpace=wrap;html=1;" parent="33" vertex="1">
                    <mxGeometry x="505" y="270" width="120" height="60" as="geometry"/>
                </mxCell>
                <mxCell id="8" value="" style="shape=flexArrow;endArrow=classic;startArrow=classic;html=1;entryX=0.5;entryY=1;entryDx=0;entryDy=0;exitX=1;exitY=0;exitDx=0;exitDy=32.5;exitPerimeter=0;" parent="33" source="5" target="7" edge="1">
                    <mxGeometry width="100" height="100" relative="1" as="geometry">
                        <mxPoint x="755" y="590" as="sourcePoint"/>
                        <mxPoint x="575" y="330" as="targetPoint"/>
                    </mxGeometry>
                </mxCell>
                <mxCell id="9" value="Boton Envio de tareas" style="shape=parallelogram;perimeter=parallelogramPerimeter;whiteSpace=wrap;html=1;fixedSize=1;" parent="33" vertex="1">
                    <mxGeometry x="298.5" y="270" width="120" height="60" as="geometry"/>
                </mxCell>
                <mxCell id="11" value="" style="endArrow=classic;html=1;exitX=1;exitY=0.5;exitDx=0;exitDy=0;" parent="33" source="2" target="9" edge="1">
                    <mxGeometry width="50" height="50" relative="1" as="geometry">
                        <mxPoint x="235" y="345" as="sourcePoint"/>
                        <mxPoint x="285" y="295" as="targetPoint"/>
                    </mxGeometry>
                </mxCell>
                <mxCell id="12" value="" style="endArrow=classic;html=1;entryX=0;entryY=0.5;entryDx=0;entryDy=0;exitX=1;exitY=0.5;exitDx=0;exitDy=0;" parent="33" source="9" target="7" edge="1">
                    <mxGeometry width="50" height="50" relative="1" as="geometry">
                        <mxPoint x="409.28" y="310" as="sourcePoint"/>
                        <mxPoint x="504.999755826859" y="323.3407325194229" as="targetPoint"/>
                    </mxGeometry>
                </mxCell>
                <mxCell id="13" value="&lt;h1&gt;&lt;font style=&quot;font-size: 18px;&quot;&gt;Boton envio tareas&lt;/font&gt;&lt;/h1&gt;&lt;div&gt;&lt;font style=&quot;font-size: 11px;&quot;&gt;Este boton estara dentro de la aplicacion To Do List&lt;/font&gt;&lt;/div&gt;" style="text;html=1;strokeColor=none;fillColor=none;spacing=5;spacingTop=-20;whiteSpace=wrap;overflow=hidden;rounded=0;" parent="33" vertex="1">
                    <mxGeometry x="270" y="330" width="190" height="90" as="geometry"/>
                </mxCell>
                <mxCell id="15" value="La Api funcionara aun si el boton dentro de la aplicacion no es presionado por el usuario, por lo que tendra que ejecutarse cada cierto tiempo, La API ira a traer todas las tareas a la base de datos, aun cuando se envie a travez del boton" style="text;html=1;strokeColor=none;fillColor=none;align=center;verticalAlign=middle;whiteSpace=wrap;rounded=0;fontSize=11;rotation=-60;" parent="33" vertex="1">
                    <mxGeometry x="435" y="430" width="230" height="100" as="geometry"/>
                </mxCell>
                <mxCell id="17" value="Tipo de Api" style="swimlane;whiteSpace=wrap;html=1;fontSize=11;" parent="33" vertex="1">
                    <mxGeometry x="715" y="260" width="130" height="80" as="geometry"/>
                </mxCell>
                <mxCell id="18" value="&lt;b&gt;&lt;i&gt;RESTFULL&amp;nbsp; API&lt;/i&gt;&lt;/b&gt;" style="text;html=1;align=center;verticalAlign=middle;resizable=0;points=[];autosize=1;strokeColor=none;fillColor=none;fontSize=11;" parent="17" vertex="1">
                    <mxGeometry x="15" y="40" width="100" height="30" as="geometry"/>
                </mxCell>
                <mxCell id="20" value="" style="endArrow=classic;html=1;fontSize=11;entryX=0;entryY=0.5;entryDx=0;entryDy=0;exitX=1;exitY=0.5;exitDx=0;exitDy=0;" parent="33" source="7" target="17" edge="1">
                    <mxGeometry width="50" height="50" relative="1" as="geometry">
                        <mxPoint x="655" y="320" as="sourcePoint"/>
                        <mxPoint x="665" y="250" as="targetPoint"/>
                    </mxGeometry>
                </mxCell>
                <mxCell id="21" value="Container To Do List" style="swimlane;fontSize=11;" parent="33" vertex="1">
                    <mxGeometry x="85" y="220" width="140" height="120" as="geometry"/>
                </mxCell>
                <mxCell id="22" value="Container API RESTFULL" style="swimlane;fontSize=11;" parent="33" vertex="1">
                    <mxGeometry x="495" y="220" width="140" height="120" as="geometry"/>
                </mxCell>
                <mxCell id="23" value="Container Data Base MySql" style="swimlane;fontSize=11;" parent="33" vertex="1">
                    <mxGeometry x="286.75" y="510" width="156.5" height="150" as="geometry"/>
                </mxCell>
                <mxCell id="31" value="Docker" style="swimlane;whiteSpace=wrap;html=1;fontSize=48;startSize=70;" parent="33" vertex="1">
                    <mxGeometry x="35" y="90" width="840" height="610" as="geometry"/>
                </mxCell>
            </root>
        </mxGraphModel>
    </diagram>
</mxfile>